<?xml version="1.0" encoding="utf-8"?>
<!-- Generator: Adobe Illustrator 21.0.1, SVG Export Plug-In . SVG Version: 6.00 Build 0)  -->
<svg version="1.1" xmlns="http://www.w3.org/2000/svg" xmlns:xlink="http://www.w3.org/1999/xlink" x="0px" y="0px"
	 viewBox="0 0 500 500" style="enable-background:new 0 0 500 500;" xml:space="preserve">
<style type="text/css">
	.st0{fill:none;stroke:#000000;stroke-width:5;stroke-miterlimit:10;}
</style>
<g id="Layer_1">
	<g>
		<path d="M93.2,266.3c-1.1,0.7-2.4,1.1-3.9,1.1c-1.5,0-2.8-0.4-3.9-1.1c-1.1,0.7-2.2,1.1-3.2,1.1c-1,0-1.8-0.1-2.5-0.3
			c-0.7-0.2-1.3-0.4-1.8-0.7c-1.1-0.6-1.6-1.3-1.6-2.2c0-0.4,0.1-0.8,0.4-1.2c0.5,0.4,1.2,0.6,2,0.6c0.8,0,1.7-0.2,2.5-0.6
			c0.8-0.4,1.5-1.1,1.9-2v-6.6c0-1-0.2-1.8-0.6-2.3c-0.7-0.9-1.9-1.7-3.5-2.5c1.5-0.7,2.5-1.3,3-1.8c0.8-0.9,1.1-1.9,1.1-3v-1.2
			l-13.5-23.4c-1.3-1.2-2.5-1.8-3.5-1.8s-1.8,0.2-2.4,0.6c-0.2-0.2-0.4-0.5-0.4-1c0-0.5,0.1-0.9,0.2-1.4c0.2-0.4,0.4-0.8,0.7-1.1
			c0.7-0.7,1.8-1,3.1-1c1.4,0,2.6,0.4,3.6,1.2c1.1-0.8,2.5-1.2,4-1.2c1.5,0,2.8,0.4,3.8,1.1c1.2-0.8,2.3-1.1,3.3-1.1
			c1,0,1.9,0.1,2.5,0.2c0.6,0.1,1.2,0.4,1.7,0.7c1,0.6,1.5,1.4,1.6,2.4c0,0.6-0.1,1-0.4,1.2c-0.6-0.4-1.2-0.6-1.8-0.6
			c-1.3,0-2.4,0.2-3.2,0.7l10.1,19.3l9.6-19.4c-0.9-0.6-2-0.8-3.2-0.8s-2.1,0.2-2.8,0.6c-0.2-0.3-0.3-0.9-0.3-1.6
			c0-0.7,0.3-1.4,0.9-1.9c0.6-0.5,1.5-0.8,2.6-0.8c1.1,0,2.1,0.3,2.9,0.9c0.7-0.6,1.6-0.9,2.6-0.9c1,0,1.9,0.2,2.6,0.7
			c1-0.5,2-0.7,3-0.7c1,0,1.8,0.3,2.4,1c0.6,0.6,0.9,1.5,0.9,2.5c0,0.5-0.1,0.9-0.4,1c-0.6-0.4-1.3-0.6-2.2-0.6
			c-1.5,0-2.8,0.4-3.9,1.2L95.5,243v1.9c0,1.1,0.2,1.9,0.7,2.5c0.8,0.9,1.9,1.6,3.4,2.3c-1.6,0.8-2.7,1.4-3.1,2
			c-0.7,0.8-1,1.8-1,2.8v6.6c0.4,0.9,1,1.6,1.9,2c0.8,0.4,1.7,0.6,2.5,0.6c0.8,0,1.5-0.2,2-0.6c0.2,0.3,0.4,0.7,0.4,1.2
			c0,0.4-0.1,0.8-0.4,1.2c-0.3,0.4-0.7,0.7-1.2,1c-1.1,0.6-2.4,0.9-3.7,0.9S94.3,267,93.2,266.3z M86.3,257.8c1.2-0.4,1.8-2.2,2-5.3
			c0-0.9,0-1.9,0-2.9V244c0-1.1-0.2-2-0.6-2.7l-6.9-12.5c-1-1.7-1.7-2.7-2.1-3.1c-0.7-0.6-1.5-1-2.4-1.1l10.1,18.7v1.7
			c0,1.3-0.1,2.2-0.3,2.7c-0.3,0.9-1.1,1.5-2.5,1.9c1.5,0.6,2.4,1.2,2.6,2.1c0.2,0.6,0.2,1.4,0.2,2.2c0,0.8,0,1.6-0.1,2.2
			C86.3,256.7,86.3,257.3,86.3,257.8z"/>
		<path d="M143.8,256.6c0.5-0.9,1.4-1.4,2.7-1.4c0.9,0,1.6,0.4,2.1,1.1c0.4,0.6,0.6,1.3,0.6,2.1c0,0.8-0.2,1.7-0.6,2.5
			c-0.4,0.9-1,1.6-1.8,2.3s-1.6,1.3-2.5,1.9c-1,0.5-2,1-3,1.3c-2.2,0.7-4.5,1.1-6.9,1.1c-2.4,0-4.7-0.4-6.8-1.2s-3.9-1.9-5.4-3.4
			c-2.9-2.8-4.7-6.7-5.4-11.7c-0.2-1.1-0.4-1.9-0.8-2.4c-0.7-0.8-1.8-1.6-3.3-2.4c2-0.9,3.2-2.3,3.7-4.2c0.2-0.5,0.3-1.1,0.4-1.6
			c0.6-4,2.6-7.3,6-10.1c3.3-2.7,7-4,11.2-4c4.3,0,8,1.5,11.1,4.5c3.2,3.1,4.9,6.9,4.9,11.4c0,0.2,0,0.3,0,0.5c0,0.2,0,0.3,0,0.4
			c0,0.3,0.2,0.5,0.5,0.5c0.4,0.5,0.6,1.1,0.6,1.7c0,1.3-0.7,2.1-2.2,2.4c-0.4,0.1-0.9,0.2-1.7,0.3l-19,3v3.2c0,2.6,0.8,4.7,2.4,6.2
			c1.5,1.5,3.4,2.2,5.6,2.2c2.4,0,4.3-0.5,5.8-1.5c1.4-0.9,2.1-2.2,2.1-3.7C144,257.4,143.9,257,143.8,256.6z M122.6,257.8
			c0.3-0.2,0.5-0.5,0.5-0.8c0-0.5-0.1-1.1-0.3-1.9c-0.9-3.5-1.4-6-1.4-7.4c0-1.4,0-2.5,0.1-3.2c0.1-0.8,0.2-1.6,0.4-2.3
			c0.3-1.5,0.6-2.9,0.9-4c0.2-0.8,0.3-1.3,0.3-1.5c0-0.5-0.2-0.9-0.5-1.2c-0.9,1.1-1.7,2.6-2.2,4.5c-0.5,1.9-0.9,3.5-1.2,5
			c-0.1,0.6-0.8,1.2-2,1.8c1.2,0.6,1.9,1.1,2,1.7c0.8,3.8,1.5,6.2,2.1,7.2C121.9,256.6,122.3,257.3,122.6,257.8z M137.9,245.7v-9.4
			c0-1.5-0.3-2.6-0.9-3.3c-1-1.2-2.1-1.8-3.1-1.8s-1.9,0.2-2.5,0.5c-0.7,0.3-1.3,0.8-1.8,1.4c-1,1.4-1.5,3.5-1.5,6.4v7.8
			L137.9,245.7z M142.9,244.8v-1c0-4.2-0.3-6.7-1-7.6c-0.3-0.4-0.7-0.7-1-0.8v9.8L142.9,244.8z"/>
		<path d="M161.9,266.3c-1,0.7-2.2,1.1-3.5,1.1c-1.3,0-2.3-0.3-2.9-0.9c-0.6-0.6-1-1.1-1-1.7c0-0.7,0.2-1.3,0.5-1.8
			c0.5,0.4,1.1,0.6,1.9,0.6c1.3,0,2.2-0.8,2.8-2.3V251c0-1-0.2-1.7-0.6-2.2c-0.7-0.7-1.8-1.4-3.5-2.3c1.6-0.7,2.6-1.3,3-1.8
			c0.7-0.7,1.1-1.7,1.1-2.7v-19c0-2.6-1-3.8-3.1-3.8c-0.8,0-1.4,0.2-1.9,0.6c-0.3-0.4-0.5-0.9-0.5-1.3c0-0.5,0.1-0.9,0.4-1.3
			c0.2-0.4,0.6-0.8,1.1-1.2c1.1-0.8,2.4-1.1,4-1.1s2.9,0.1,3.8,0.3c1.2-1.5,2.6-2.3,4.2-2.3c2.2,0,3.4,1.2,3.4,3.6v25.7
			c0,1.1,0.2,1.9,0.7,2.3c0.7,0.7,1.8,1.4,3.4,2.2c-1.7,0.8-2.7,1.5-3.2,1.9c-0.6,0.7-0.9,1.5-0.9,2.5v10.4c0.5,1.5,1.5,2.3,2.8,2.3
			c0.8,0,1.4-0.2,1.9-0.6c0.3,0.4,0.5,1,0.5,1.6c0,0.6-0.3,1.3-1,1.8c-0.6,0.6-1.6,0.9-2.9,0.9s-2.5-0.4-3.6-1.1
			c-0.9,0.7-2,1.1-3.3,1.1S162.9,267,161.9,266.3z M162.8,257.8c1-0.7,1.6-2.1,1.8-4.3c0.1-1,0.1-2,0.1-3.2c0-1.2,0-2,0.1-2.5
			c0-0.5,0-0.9,0-1.1v-3c0-0.8,0-1.8,0-2.8v-3.3c-0.1-6-0.2-9.3-0.3-9.9c-0.3-1.4-0.9-2.4-1.6-2.9V236c0,4.6-0.1,7.2-0.2,7.8
			c-0.1,0.5-0.2,0.9-0.3,1.2c-0.2,0.7-1,1.3-2.3,1.7c1.3,0.5,2.1,1,2.3,1.7c0.3,1.1,0.4,3.5,0.4,7.3V257.8z"/>
		<path d="M186.4,282.8c-1,0.7-2.2,1.1-3.5,1.1c-1.3,0-2.3-0.3-2.9-0.9c-0.6-0.6-1-1.1-1-1.7c0-0.7,0.2-1.3,0.5-1.8
			c0.5,0.4,1.1,0.6,1.9,0.6c1.3,0,2.2-0.8,2.8-2.3v-26.5c0-1-0.2-1.8-0.6-2.3c-0.7-0.8-1.8-1.7-3.5-2.5c2.7-1.3,4.1-3.2,4.1-5.8
			v-3.5c0-1.9-0.7-2.9-2-3.1c-0.4,0-0.9-0.1-1.4-0.1c-0.6,0-1.1,0.2-1.6,0.6c-0.3-0.4-0.5-0.9-0.5-1.3c0-0.5,0.1-1,0.4-1.5
			c0.2-0.6,0.6-1.1,1.1-1.6c1.2-1.2,2.6-1.8,4.1-1.8s2.9,0.2,3.9,0.7c1.2-1.4,2.6-2.1,4-2.1c2.3,0,3.5,1.2,3.5,3.6v0.2
			c1.8-1.8,4.1-3,6.9-3.6c0.9-0.2,2-0.3,3.4-0.3c1.4,0,2.8,0.2,4.4,0.6c1.5,0.4,2.9,1.1,4,2.2c2.2,2.1,3.6,5.8,4.1,11.1
			c0.2,2.7,1.6,4.7,4.1,5.8c-1.6,0.8-2.6,1.4-3,2c-0.6,0.8-0.9,1.7-1.1,2.8c-0.7,5.4-2,9.4-4.2,12c-2.3,2.8-5.7,4.2-10.1,4.2
			c-3.4,0-6.2-0.9-8.5-2.7v13c0.6,1.5,1.5,2.3,2.8,2.3c0.8,0,1.4-0.2,1.9-0.6c0.3,0.4,0.5,1,0.5,1.6c0,0.6-0.3,1.3-1,1.8
			c-0.6,0.6-1.6,0.9-2.9,0.9c-1.3,0-2.5-0.4-3.5-1.1c-0.9,0.7-2,1.1-3.4,1.1S187.4,283.5,186.4,282.8z M187.3,267.6
			c1.1-0.7,1.7-2.2,1.8-4.5c0-1.3,0.1-2.8,0.1-4.5c0-3.8,0.1-6.3,0.1-7.3c0-1,0-1.9,0-2.7v-2.7c0-0.4,0-0.8,0-1.3c0-0.5,0-1.1,0-1.7
			s0-1.2-0.1-1.8c-0.1-2.2-0.4-3.7-0.7-4.3c-0.4-0.7-0.7-1.1-1.1-1.4v2c0,3.9-0.1,6.2-0.3,6.9c-0.2,0.7-0.4,1.2-0.8,1.5
			c-0.4,0.3-0.9,0.6-1.6,0.9c1.3,0.5,2.1,1,2.3,1.7c0.3,1,0.4,3.8,0.4,8.3V267.6z M195.5,256c0,1.8,0.6,3.4,1.8,4.7
			c1.2,1.3,2.5,1.9,4,1.9c3.8,0,5.6-2.7,5.6-8.1v-14.8c0-2.5-0.4-4.4-1.3-5.8c-0.9-1.4-2.1-2.1-3.7-2.1c-2.9,0-4.8,1.6-5.9,4.7
			c-0.4,1.1-0.5,2.4-0.5,3.9V256z M210.2,257.8c1.1-0.4,1.8-1.9,1.9-4.4c0.1-2.5,0.2-4.4,0.2-5.6s0-2.2,0-3.1c0-0.8,0-1.7-0.1-2.5
			c-0.1-3.3-0.3-5.2-0.8-5.7c-0.4-0.5-0.8-0.9-1.2-1.1V257.8z"/>
		<path d="M258.6,260.9c0.9-0.8,1.6-1.8,2.1-3c0.5-1.2,0.8-2.5,0.8-3.8c0-1.3-0.3-2.4-0.8-3.1c0.4-0.6,1.1-0.9,2.3-0.9
			s2,0.4,2.6,1.1c0.6,0.7,0.9,1.9,0.9,3.4c0,1.5-0.4,3.1-1.2,4.8c-0.8,1.7-2,3.1-3.5,4.3c-3.3,2.7-7.4,4-12.3,4
			c-5.9,0-10.7-1.8-14.5-5.5c-3.8-3.8-6.2-9.2-6.9-16.1c-0.4-3.2-1.5-5.3-3.4-6.2c1.1-0.5,1.8-1,2.2-1.5c0.7-0.9,1.1-2.2,1.3-3.8
			c0.2-1.6,0.6-3.2,1.1-4.9c0.5-1.7,1.3-3.3,2.1-4.9c0.9-1.5,1.9-3,3.2-4.2c1.2-1.3,2.6-2.4,4.2-3.4c3.4-2,7.3-3,11.8-3
			c4.4,0,8,1.1,10.9,3.3c2.6,2,4.3,4.7,5,8.2c0.4,1.7,0.8,2.8,1.4,3.2c0.2,0.2,0.5,0.3,0.8,0.5c-0.7,1.1-1.7,1.7-3.1,1.9
			c-0.6,0.1-1.3,0-2-0.4c-1.2,2.1-3,3.2-5.2,3.4c-0.5,0-0.8,0-1.1-0.3c0.6-0.8,0.9-1.8,0.8-2.8c0-0.2,0-0.4-0.1-0.6
			c-1,0.2-1.9,0.1-2.6-0.3c-1.2-0.7-1.8-1.4-1.8-2.2c0-0.2,0-0.4,0.1-0.5c1.4,0.4,2.7,0.1,4-0.9c0.9-0.7,1.3-1.5,1.2-2.4
			s-0.2-1.6-0.6-2.3c-0.4-0.7-0.9-1.2-1.5-1.8c-1.5-1.2-3.4-1.8-5.7-1.8c-3.9,0-6.4,1.8-7.6,5.3c-0.4,1.2-0.6,2.5-0.6,4.1v6.8
			c0,2.5,1.2,4.3,3.7,5.4c-2.5,1.2-3.7,3.1-3.7,5.8v8.3c0,4.3,1.7,7.1,5.1,8.5c1.1,0.4,2.3,0.6,3.6,0.6s2.6-0.2,3.8-0.5
			C256.6,262.2,257.7,261.7,258.6,260.9z M235.8,257.8c0.3-0.1,0.5-0.4,0.5-0.7c0-0.5-0.2-1.3-0.7-2.3c-1.2-2.7-1.8-7.7-1.8-14.9
			c0-5.3,0.6-9.7,1.9-13.4c0.2-0.6,0.2-1,0.2-1.3c0-0.3-0.1-0.5-0.4-0.6c-1.1,1.3-1.8,2.6-2.3,3.9c-0.8,2.4-1.5,5.6-2,9.7
			c-0.1,0.6-0.7,1.1-2,1.7c1.3,0.6,1.9,1.1,2,1.7c0.8,7,1.8,11.6,3.1,13.9C234.8,256.4,235.3,257.1,235.8,257.8z"/>
		<path d="M294.8,263.5c-2,2.7-5.1,4-9.2,4c-5,0-8.7-1.5-11.2-4.5c-1.1-1.3-1.8-2.7-2.2-4.3c-0.2-0.9-0.6-1.7-1.2-2.2
			c-0.6-0.5-1.3-1-2.1-1.4c1.6-0.7,2.8-2.1,3.5-4.2c0.7-2.2,2-3.7,3.7-4.7c1.9-1,3.9-1.5,6.2-1.6c2.2-0.1,3.9-0.1,5-0.2
			c1.1-0.1,2-0.2,2.9-0.4c1.5-0.4,2.8-1,3.6-2v-5.1c0-2.2-0.5-3.9-1.4-4.9c-0.9-1-2.3-1.5-4.1-1.5c-1.9,0-3.2,0.3-4.1,1
			c-0.9,0.7-1.3,1.6-1.3,2.7c0,1.8,0.9,2.6,2.7,2.6c-0.4,1.8-1.3,2.6-2.8,2.6c-0.5,0-0.9-0.1-1.3-0.2v0.1c0,0.6,0.3,1,0.8,1.1
			c-0.6,0.9-1.5,1.3-2.8,1.2c-1.3,0-2.4-0.7-3.1-2.1c-0.3,0.1-0.7,0.1-1.2,0.1c-0.4,0-0.9-0.1-1.4-0.4c-0.5-0.3-0.9-0.7-1.3-1.2
			c1.1-0.7,1.8-1.7,2.1-3.1c0.3-1.7,1.7-3.5,4.1-5.3c3-2.1,6.9-3.2,11.5-3.2c7.7,0,12.5,2.4,14.2,7.1c0.6,1.6,0.8,3.5,0.8,5.7v2.7
			c0,1.1,0.3,2,0.8,2.7c0.5,0.7,1.5,1.3,2.8,1.7c-1.4,0.7-2.3,1.2-2.7,1.8c-0.6,0.8-0.9,1.7-0.9,2.7v10.1c0.7,1.7,1.6,2.5,2.8,2.5
			c0.8,0,1.4-0.2,1.9-0.6c0.3,0.4,0.5,1,0.5,1.6c0,0.6-0.3,1.3-1,1.8c-0.6,0.6-1.6,0.9-2.9,0.9s-2.5-0.4-3.6-1.1
			c-1,0.7-1.8,1.1-2.6,1.1c-0.8,0-1.4-0.1-2-0.2c-0.6-0.1-1.1-0.4-1.5-0.7C295.7,265.8,295,264.8,294.8,263.5z M279.4,263
			c0.2-0.2,0.3-0.4,0.3-0.6c0-0.3-0.2-0.8-0.5-1.4c-1.1-2.1-1.7-3.8-1.7-5.1c0-1.3,0.1-2.3,0.2-2.9c0.1-0.6,0.2-1.1,0.4-1.5
			c0.2-0.4,0.4-0.8,0.6-1.1c0.2-0.3,0.4-0.6,0.6-0.8c0.3-0.5,0.4-0.9,0.4-1.1s-0.1-0.4-0.3-0.5c-0.9,0.4-1.6,0.9-2,1.5
			c-0.8,1-1.3,2.4-1.7,4c-0.1,0.5-0.9,1-2.4,1.7c1.4,0.7,2.2,1.2,2.4,1.7C276.5,259.7,277.7,261.7,279.4,263z M284.5,255.4
			c0,0.9,0.1,1.9,0.3,2.8c0.2,0.9,0.5,1.7,0.9,2.4c0.9,1.4,2.2,2.1,3.8,2.1c1.2,0,2.3-0.5,3.1-1.5c0.8-1,1.1-2.3,1.1-3.8v-11
			c-1.4,0.8-3.3,1.4-5.5,1.7C285.7,248.4,284.5,250.9,284.5,255.4z M296.9,257.8c1.3-0.5,2-3,2.1-7.4c0-0.9,0-2,0-3.2s0-2.3,0-3.1
			c0-0.9,0-1.7-0.1-2.5c-0.1-2.8-0.3-4.5-0.8-5.1c-0.4-0.6-0.8-0.9-1.2-1.1V257.8z"/>
		<path d="M321.1,266.3c-1,0.7-2.2,1.1-3.5,1.1c-1.3,0-2.3-0.3-2.9-0.9c-0.6-0.6-0.9-1.2-0.9-1.8c0-0.7,0.1-1.3,0.4-1.6
			c0.5,0.4,1.1,0.6,1.9,0.6c1.4,0,2.4-0.7,2.8-2.1v-10.5c0-1-0.2-1.7-0.6-2.2c-0.6-0.7-1.8-1.5-3.5-2.3c1.6-0.7,2.6-1.3,3-1.7
			c0.7-0.7,1.1-1.7,1.1-2.7v-4.9c0-1.9-0.7-2.9-2-3.1c-0.4,0-0.9-0.1-1.4-0.1s-1.1,0.2-1.6,0.6c-0.3-0.4-0.5-0.9-0.5-1.3
			c0-0.5,0.1-1,0.4-1.5c0.2-0.6,0.6-1.1,1.1-1.6c1.2-1.2,2.6-1.8,4.1-1.8s2.9,0.2,3.9,0.7c1.2-1.4,2.6-2.1,4-2.1
			c2.3,0,3.5,1.2,3.5,3.6l0,2.8c1.9-3,4.5-5,7.9-6c1.1-0.3,2.2-0.5,3.4-0.5c2.7,0,4.9,0.6,6.6,1.9s3,3.1,3.8,5.5
			c1.7-3.5,4.4-5.8,8.2-6.8c1.2-0.4,2.6-0.5,4.2-0.5s3,0.3,4.4,0.9c1.4,0.6,2.6,1.4,3.5,2.5c2,2.3,2.9,5.5,2.9,9.5l-0.1,2.3
			c0,1.1,0.2,1.9,0.7,2.3c0.7,0.7,1.8,1.4,3.4,2.1c-1.7,0.8-2.8,1.5-3.2,1.9c-0.6,0.7-0.9,1.5-0.9,2.5v10.5c0.4,1.4,1.4,2.1,2.8,2.1
			c0.5,0,1.1-0.2,1.5-0.6c0.1,0.2,0.3,0.4,0.5,0.5c0.2,0.2,0.3,0.5,0.3,1.1c0,0.6-0.3,1.2-0.9,1.8c-0.6,0.6-1.5,0.9-2.8,0.9
			c-1.3,0-2.5-0.4-3.6-1.1c-1,0.7-2.1,1.1-3.4,1.1c-1.2,0-2.3-0.3-3.3-1c-0.9,0.7-1.9,1-2.9,1c-1.1,0-2-0.3-2.6-0.8
			c-0.7-0.6-1-1.4-1-2.4c0-0.5,0.2-0.9,0.5-1.2c0.5,0.4,1,0.6,1.5,0.6c1,0,1.7-0.5,2.1-1.7v-20.1c0-5.3-1.9-7.9-5.8-7.9
			c-1.1,0-2.2,0.6-3.2,1.9c-1.1,1.3-1.7,2.8-2.1,4.6l-0.1,21.5c0.4,1.1,1.1,1.7,2.1,1.7c0.5,0,1-0.2,1.6-0.6
			c0.3,0.3,0.5,0.8,0.5,1.6c0,0.8-0.3,1.4-1,2c-0.7,0.6-1.5,0.8-2.6,0.8c-1.1,0-2.1-0.3-3-1c-1,0.7-2.1,1-3.3,1
			c-1.2,0-2.3-0.3-3.3-1c-0.9,0.7-1.9,1-2.9,1c-1.1,0-2-0.3-2.6-0.8c-0.7-0.6-1-1.4-1-2.4c0-0.5,0.2-0.9,0.5-1.2
			c0.5,0.4,1,0.6,1.5,0.6c1,0,1.7-0.5,2.1-1.7v-20.1c0-4.2-1-6.7-3.1-7.5c-0.7-0.3-1.4-0.4-2.2-0.4c-1.5,0-2.8,0.7-3.9,2
			c-1,1.2-1.7,2.7-2,4.6l-0.1,21.5c0.4,1.1,1.1,1.7,2.1,1.7c0.5,0,1-0.2,1.5-0.6c0.4,0.3,0.6,0.9,0.6,1.6c0,0.8-0.3,1.4-1,2
			c-0.7,0.6-1.6,0.8-2.7,0.8c-1.1,0-2.1-0.3-2.9-1c-0.9,0.7-2,1-3.2,1S322.1,267,321.1,266.3z M322.1,257.8c1.1-0.7,1.7-2.1,1.8-4.2
			c0.1-1.6,0.1-3.1,0.1-4.3V245c0-3.3-0.1-5.5-0.3-6.4c-0.3-1.6-0.9-2.7-1.7-3.2v2.2c0,3.8-0.1,6-0.3,6.7c-0.2,0.7-0.4,1.2-0.8,1.5
			c-0.4,0.3-0.9,0.6-1.6,0.9c1.3,0.5,2.1,1,2.3,1.7c0.3,1.1,0.4,3.5,0.4,7.3V257.8z M343.5,235.4c0.7,1.6,1,4.8,1,9.6v12.8
			c1.1-0.4,1.7-1.9,1.9-4.4c0.1-2.5,0.2-4.7,0.2-6.7s-0.1-3.6-0.2-4.9c-0.1-1.3-0.3-2.4-0.5-3.3C345.4,237,344.6,235.9,343.5,235.4z
			 M365.9,235.4c0.7,1.6,1,4.8,1,9.6v12.8c1.1-0.4,1.7-1.9,1.9-4.4c0.1-2.5,0.2-4.7,0.2-6.7s-0.1-3.6-0.2-4.9
			c-0.1-1.3-0.3-2.4-0.5-3.3C367.8,237,367,235.9,365.9,235.4z"/>
		<path d="M389.7,282.8c-1,0.7-2.2,1.1-3.5,1.1s-2.3-0.3-2.9-0.9c-0.6-0.6-1-1.1-1-1.7c0-0.7,0.2-1.3,0.5-1.8
			c0.5,0.4,1.1,0.6,1.9,0.6c1.3,0,2.2-0.8,2.8-2.3v-26.5c0-1-0.2-1.8-0.6-2.3c-0.7-0.8-1.8-1.7-3.5-2.5c2.7-1.3,4.1-3.2,4.1-5.8
			v-3.5c0-1.9-0.7-2.9-2-3.1c-0.4,0-0.9-0.1-1.4-0.1s-1.1,0.2-1.6,0.6c-0.3-0.4-0.5-0.9-0.5-1.3c0-0.5,0.1-1,0.4-1.5
			c0.2-0.6,0.6-1.1,1.1-1.6c1.2-1.2,2.6-1.8,4.1-1.8s2.9,0.2,3.9,0.7c1.2-1.4,2.6-2.1,4-2.1c2.3,0,3.5,1.2,3.5,3.6v0.2
			c1.8-1.8,4.1-3,6.9-3.6c0.9-0.2,2-0.3,3.4-0.3c1.4,0,2.8,0.2,4.4,0.6c1.5,0.4,2.9,1.1,4,2.2c2.2,2.1,3.6,5.8,4.1,11.1
			c0.2,2.7,1.6,4.7,4.1,5.8c-1.6,0.8-2.6,1.4-3,2c-0.6,0.8-0.9,1.7-1.1,2.8c-0.7,5.4-2,9.4-4.2,12c-2.3,2.8-5.7,4.2-10.1,4.2
			c-3.4,0-6.2-0.9-8.5-2.7v13c0.6,1.5,1.5,2.3,2.8,2.3c0.8,0,1.4-0.2,1.9-0.6c0.3,0.4,0.5,1,0.5,1.6c0,0.6-0.3,1.3-1,1.8
			c-0.6,0.6-1.6,0.9-2.9,0.9s-2.5-0.4-3.5-1.1c-0.9,0.7-2,1.1-3.4,1.1S390.7,283.5,389.7,282.8z M390.6,267.6
			c1.1-0.7,1.7-2.2,1.8-4.5c0-1.3,0.1-2.8,0.1-4.5c0-3.8,0.1-6.3,0.1-7.3c0-1,0-1.9,0-2.7v-2.7c0-0.4,0-0.8,0-1.3c0-0.5,0-1.1,0-1.7
			s0-1.2-0.1-1.8c-0.1-2.2-0.4-3.7-0.7-4.3c-0.4-0.7-0.7-1.1-1.1-1.4v2c0,3.9-0.1,6.2-0.3,6.9c-0.2,0.7-0.4,1.2-0.8,1.5
			c-0.4,0.3-0.9,0.6-1.6,0.9c1.3,0.5,2.1,1,2.3,1.7c0.3,1,0.4,3.8,0.4,8.3V267.6z M398.8,256c0,1.8,0.6,3.4,1.8,4.7
			c1.2,1.3,2.5,1.9,4,1.9c3.8,0,5.6-2.7,5.6-8.1v-14.8c0-2.5-0.4-4.4-1.3-5.8c-0.9-1.4-2.1-2.1-3.7-2.1c-2.9,0-4.8,1.6-5.9,4.7
			c-0.4,1.1-0.5,2.4-0.5,3.9V256z M413.5,257.8c1.1-0.4,1.8-1.9,1.9-4.4c0.1-2.5,0.2-4.4,0.2-5.6s0-2.2,0-3.1c0-0.8,0-1.7-0.1-2.5
			c-0.1-3.3-0.3-5.2-0.8-5.7s-0.8-0.9-1.2-1.1V257.8z"/>
	</g>
</g>
<g id="Layer_2">
	<ellipse class="st0" cx="241.1" cy="241.8" rx="207" ry="73.7"/>
</g>
</svg>
